#!OML:ASF F:\VICON\USERDATA\Patient Classification 1\PLAYGROUND\JustinFriday\JustinFriday.ASF
:FULLY-SPECIFIED
:DEGREES
2687
root 14.2384 18.6166 53.227 -708.291 -189.696 11.0772
lowerback 22.0933 10.3968 2.80148
upperback 6.10751 15.6766 2.2533
thorax -5.21611 8.128 -3.16783
lowerneck -0.391726 -9.84211 7.14976
upperneck 19.395 -16.1552 2.62671
head 5.70417 -7.6473 -1.12073
rclavicle -1.9958e-013 5.56597e-014
rhumerus 34.0342 -4.00323 -70.04
rradius 45.2026
rwrist 17.235
rhand -26.3821 -8.447
rfingers 7.12502
rthumb 0.176657 -398.427
lclavicle -1.9958e-013 5.56597e-014
lhumerus 77.2579 -14.7089 59.484
lradius 26.8831
lwrist -18.101
lhand -23.3782 -30.079
lfingers 7.12502
lthumb 3.07791 -0.121418
rfemur -4.21612 -5.13512 37.0274
rtibia -2.62396e-014
rfoot -2.39097 -12.4218
rtoes 15.8114
lfemur -81.2964 26.1786 -16.9867
ltibia 89.1768
lfoot -23.9598 -16.7474
ltoes 5.67947
2688
root 14.2516 18.6157 53.2105 -708.212 -189.977 11.3059
lowerback 22.2805 10.3518 2.8119
upperback 6.32486 15.6716 2.27309
thorax -5.07623 8.15282 -3.1604
lowerneck -2.19427 -9.63672 6.82809
upperneck 20.1292 -15.9967 2.40143
head 6.24076 -7.50769 -1.28897
rclavicle -2.8625e-014 1.35174e-014
rhumerus 34.4685 -3.92277 -70.3961
rradius 45.6782
rwrist 17.3493
rhand -26.4694 -8.6868
rfingers 7.12502
rthumb 0.0923487 -398.667
lclavicle -2.8625e-014 1.35174e-014
lhumerus 77.2819 -14.058 59.7885
lradius 27.3369
lwrist -18.0666
lhand -22.7104 -29.9872
lfingers 7.12502
lthumb 3.72275 -0.0399748
rfemur -4.11746 -4.71278 37.2531
rtibia 8.74653e-015
rfoot -2.35894 -12.5087
rtoes 15.6492
lfemur -80.6315 26.2657 -16.4921
ltibia 88.6769
lfoot -25.5237 -17.0727
ltoes 7.08053
2689
root 14.2608 18.6169 53.197 -708.157 -190.281 11.5392
lowerback 22.5007 10.0191 2.78683
upperback 5.96265 15.1555 2.15124
thorax -5.5807 7.8437 -3.24361
lowerneck -1.01745 -9.15142 6.75429
upperneck 19.7051 -15.1641 2.24222
head 5.9102 -7.19349 -1.1955
rclavicle -4.85035e-014 -7.95139e-016
rhumerus 34.2291 -2.56731 -71.3767
rradius 45.8781
rwrist 17.2738
rhand -26.5093 -8.52122
rfingers 7.12502
rthumb 0.0538864 -398.501
lclavicle -4.85035e-014 -7.95139e-016
lhumerus 75.8274 -13.1806 59.8457
lradius 27.8267
lwrist -18.0341
lhand -21.7739 -29.8875
lfingers 7.12502
lthumb 4.62711 0.0419694
rfemur -4.00412 -4.27704 37.465
rtibia -3.02153e-014
rfoot -2.26399 -12.6629
rtoes 15.5455
lfemur -79.9495 26.2269 -15.9606
ltibia 88.3564
lfoot -27.7645 -16.3517
ltoes 6.87257
2690
root 14.2635 18.6189 53.18 -708.348 -190.61 11.3933
lowerback 22.8646 9.78524 2.55632
upperback 5.89036 14.7759 1.97829
thorax -5.86943 7.63858 -3.29519
lowerneck -0.789623 -8.76513 6.06513
upperneck 19.778 -14.6992 2.68865
head 5.98291 -6.9982 -0.935737
rclavicle -2.46493e-014 -3.26007e-014
rhumerus 34.3298 -1.70963 -72.0696
rradius 45.953
rwrist 17.289
rhand -26.5964 -8.29119
rfingers 7.12502
rthumb -0.0302583 -398.271
lclavicle -2.46493e-014 -3.26007e-014
lhumerus 75.0055 -12.4371 59.3844
lradius 28.4303
lwrist -17.5501
lhand -21.2988 -29.7333
lfingers 7.12502
lthumb 5.0858 0.185656
rfemur -3.71575 -3.95345 37.224
rtibia 1.11319e-014
rfoot -2.19443 -12.7869
rtoes 14.9921
lfemur -79.0704 26.1806 -15.8771
ltibia 88.1378
lfoot -28.8966 -15.1549
ltoes 5.12854
2691
root 14.2642 18.6207 53.1605 -708.606 -190.888 11.1456
lowerback 23.1752 9.57388 2.31884
upperback 5.92646 14.4416 1.82392
thorax -6.01622 7.47272 -3.30662
lowerneck -0.731008 -8.51722 5.50525
upperneck 19.7582 -14.3428 2.84647
head 6.01596 -6.85601 -0.787598
rclavicle 7.55382e-015 2.8625e-014
rhumerus 34.4244 -1.03318 -72.6585
rradius 46.2056
rwrist 17.4002
rhand -26.7358 -8.31887
rfingers 7.12502
rthumb -0.164904 -398.299
lclavicle 7.55382e-015 2.8625e-014
lhumerus 74.3458 -11.8092 58.5953
lradius 29.2025
lwrist -16.7081
lhand -21.036 -29.31
lfingers 7.12502
lthumb 5.33961 0.602691
rfemur -3.38344 -3.71468 36.869
rtibia -2.78299e-014
rfoot -2.18077 -12.9523
rtoes 14.9164
lfemur -78.2205 26.1363 -15.963
ltibia 87.9892
lfoot -29.8599 -14.0818
ltoes 4.38485
2692
root 14.2735 18.6554 53.1469 -708.529 -191.244 11.2209
lowerback 23.0664 9.40109 2.23324
upperback 5.93138 14.1714 1.72869
thorax -5.96389 7.34117 -3.27
lowerneck -1.12547 -8.05969 5.16271
upperneck 20.0692 -13.7495 2.83199
head 6.20399 -6.57756 -0.749711
rclavicle -5.92378e-014 -3.97569e-014
rhumerus 34.4317 -0.344053 -73.3311
rradius 46.7115
rwrist 17.4219
rhand -26.7296 -8.39002
rfingers 7.12502
rthumb -0.158936 -398.37
lclavicle -5.92378e-014 -3.97569e-014
lhumerus 73.494 -11.0988 58.4142
lradius 30.0906
lwrist -16.4774
lhand -20.399 -28.7527
lfingers 7.12502
lthumb 5.95461 1.14362
rfemur -3.33787 -3.24959 36.8831
rtibia -1.27222e-014
rfoot -2.05612 -13.1183
rtoes 15.749
lfemur -77.6131 26.2846 -15.868
ltibia 87.6329
lfoot -30.6717 -12.9507
ltoes 3.27992
2693
root 14.2652 18.6534 53.1262 -708.742 -191.084 11.0284
lowerback 23.2877 8.93947 2.3142
upperback 6.03938 13.6001 1.56824
thorax -5.92622 7.07629 -3.35641
lowerneck -2.10676 -7.4842 5.08783
upperneck 20.6223 -12.9972 2.5539
head 6.53564 -6.19771 -0.859806
rclavicle -5.725e-014 2.5842e-014
rhumerus 34.5853 0.412765 -73.8758
rradius 46.9919
rwrist 17.1591
rhand -26.7445 -8.11887
rfingers 7.12502
rthumb -0.173318 -398.099
lclavicle -5.725e-014 2.5842e-014
lhumerus 72.7699 -10.2801 58.609
lradius 30.8974
lwrist -16.4914
lhand -19.6385 -28.3334
lfingers 7.12502
lthumb 6.68885 1.54097
rfemur -3.11292 -3.40642 36.6392
rtibia -3.97569e-014
rfoot -2.00189 -13.2084
rtoes 16.3025
lfemur -77.1033 25.7396 -15.9906
ltibia 87.4511
lfoot -31.3997 -11.7955
ltoes 3.05252
2694
root 14.2665 18.6569 53.1105 -708.822 -191.025 10.9588
lowerback 23.4859 8.70716 2.22537
upperback 6.0711 13.2815 1.48423
thorax -6.00581 6.92268 -3.34823
lowerneck -3.09622 -7.20905 5.11011
upperneck 21.1172 -12.6697 2.32586
head 6.85052 -6.01193 -0.985577
rclavicle -9.54166e-015 8.34896e-015
rhumerus 34.5702 0.831359 -74.3154
rradius 47.41
rwrist 16.9537
rhand -26.75 -7.90847
rfingers 7.12502
rthumb -0.178659 -397.888
lclavicle -9.54166e-015 8.34896e-015
lhumerus 72.2847 -9.79949 58.6377
lradius 31.6687
lwrist -16.1087
lhand -19.1149 -27.9147
lfingers 7.12502
lthumb 7.19424 1.94299
rfemur -2.98979 -3.40289 36.5713
rtibia 3.57812e-014
rfoot -1.95189 -13.2747
rtoes 15.7137
lfemur -76.7695 25.3526 -15.9211
ltibia 87.3576
lfoot -31.6793 -11.5842
ltoes 5.30952
2695
root 14.2679 18.6507 53.0991 -708.64 -190.809 11.1581
lowerback 23.589 8.42023 2.42626
upperback 5.90862 12.9287 1.45418
thorax -6.2055 6.7282 -3.42762
lowerneck -3.05913 -7.06146 4.56959
upperneck 21.0364 -12.4528 2.60414
head 6.86819 -5.92795 -0.800031
rclavicle -7.2954e-014 3.37934e-014
rhumerus 34.3727 1.21789 -74.9444
rradius 47.9128
rwrist 17.0135
rhand -26.6429 -7.88911
rfingers 7.12502
rthumb -0.0752253 -397.869
lclavicle -7.2954e-014 3.37934e-014
lhumerus 71.5754 -9.42069 58.8431
lradius 32.3935
lwrist -16.0074
lhand -18.5946 -27.5024
lfingers 7.12502
lthumb 7.69647 2.33749
rfemur -3.12441 -3.43063 36.8388
rtibia -1.90833e-014
rfoot -2.06911 -13.2855
rtoes 15.4888
lfemur -77.0489 25.0331 -15.7266
ltibia 87.47
lfoot -31.658 -12.3395
ltoes 9.4779
